<svg width="10" height="18" viewBox="0 0 10 18" fill="none" xmlns="http://www.w3.org/2000/svg">
<path d="M8.69399 0.857141C8.95228 0.857197 9.20476 0.932745 9.4195 1.07424C9.63424 1.21573 9.80161 1.41681 9.90044 1.65206C9.99928 1.88731 10.0251 2.14617 9.97477 2.39592C9.9244 2.64566 9.80004 2.87507 9.61743 3.05515L3.15311 9.42864L9.61748 15.8021C9.86241 16.0435 10 16.371 10 16.7125C10 17.054 9.8624 17.3814 9.61748 17.6229C9.37255 17.8644 9.04037 18 8.69399 18C8.34762 18 8.01543 17.8644 7.77051 17.6229L0.382655 10.339C0.261343 10.2195 0.165109 10.0775 0.0994518 9.92133C0.0337951 9.76512 7.34553e-07 9.59769 7.49335e-07 9.4286C7.64118e-07 9.25951 0.0337952 9.09208 0.0994519 8.93587C0.165109 8.77966 0.261343 8.63773 0.382655 8.5182L7.77051 1.23438C7.89164 1.11463 8.03558 1.01965 8.19406 0.954906C8.35255 0.890167 8.52244 0.856943 8.69399 0.857141Z" fill="#171717"/>
</svg>
