<svg width="10" height="18" viewBox="0 0 10 18" fill="none" xmlns="http://www.w3.org/2000/svg">
<path d="M1.30601 17.1429C1.04772 17.1428 0.795246 17.0673 0.580503 16.9258C0.365761 16.7843 0.198393 16.5832 0.0995572 16.3479C0.000721484 16.1127 -0.0251444 15.8538 0.0252303 15.6041C0.0756049 15.3543 0.199958 15.1249 0.382569 14.9449L6.84689 8.57136L0.382516 2.19791C0.137594 1.95645 -1.22839e-06 1.62897 0 1.2875C1.2284e-06 0.946034 0.137599 0.618552 0.382522 0.377099C0.627446 0.135645 0.959635 -1.20379e-06 1.30601 0C1.65238 1.20381e-06 1.98457 0.13565 2.22949 0.377105L9.61735 7.661C9.73866 7.78053 9.83489 7.92246 9.90055 8.07867C9.96621 8.23488 10 8.40231 10 8.5714C10 8.74049 9.96621 8.90792 9.90055 9.06413C9.83489 9.22034 9.73866 9.36227 9.61735 9.4818L2.22949 16.7656C2.10836 16.8854 1.96442 16.9804 1.80594 17.0451C1.64746 17.1098 1.47756 17.1431 1.30601 17.1429Z" fill="#171717"/>
</svg>
