<svg width="14" height="12" viewBox="0 0 14 12" fill="none" xmlns="http://www.w3.org/2000/svg">
<path d="M11.9 0H2.1C1.54305 0 1.0089 0.221249 0.615076 0.615076C0.221249 1.0089 0 1.54305 0 2.1V9.1C0 9.65695 0.221249 10.1911 0.615076 10.5849C1.0089 10.9788 1.54305 11.2 2.1 11.2H11.9C12.457 11.2 12.9911 10.9788 13.3849 10.5849C13.7788 10.1911 14 9.65695 14 9.1V2.1C14 1.54305 13.7788 1.0089 13.3849 0.615076C12.9911 0.221249 12.457 0 11.9 0ZM2.1 1.4H11.9C12.0857 1.4 12.2637 1.47375 12.395 1.60503C12.5263 1.7363 12.6 1.91435 12.6 2.1L7 5.516L1.4 2.1C1.4 1.91435 1.47375 1.7363 1.60503 1.60503C1.7363 1.47375 1.91435 1.4 2.1 1.4ZM12.6 9.1C12.6 9.28565 12.5263 9.4637 12.395 9.59498C12.2637 9.72625 12.0857 9.8 11.9 9.8H2.1C1.91435 9.8 1.7363 9.72625 1.60503 9.59498C1.47375 9.4637 1.4 9.28565 1.4 9.1V3.696L6.636 6.895C6.74241 6.95644 6.86312 6.98878 6.986 6.98878C7.10888 6.98878 7.22959 6.95644 7.336 6.895L12.6 3.696V9.1Z" fill="white"/>
</svg>
