<svg width="14" height="14" viewBox="0 0 14 14" fill="none" xmlns="http://www.w3.org/2000/svg">
<path d="M12.2647 7.69986C12.1102 7.69986 11.9486 7.65069 11.7941 7.61556C11.4811 7.54659 11.1735 7.45502 10.8738 7.34158C10.5478 7.22301 10.1896 7.22917 9.86796 7.35887C9.54632 7.48856 9.28401 7.73263 9.1315 8.0441L8.97694 8.36024C8.29269 7.97959 7.66392 7.50683 7.10824 6.95519C6.55659 6.39951 6.08383 5.77074 5.70319 5.08648L5.99825 4.88978C6.30973 4.73727 6.55379 4.47496 6.68349 4.15332C6.81318 3.83167 6.81934 3.47343 6.70077 3.14752C6.58923 2.84714 6.4977 2.5397 6.42679 2.22722C6.39166 2.07266 6.36356 1.91108 6.34249 1.7495C6.25718 1.25466 5.99799 0.806537 5.6116 0.485834C5.22521 0.165131 4.73701 -0.00707709 4.23492 0.000222912H2.12735C1.82459 -0.00261987 1.52477 0.0598062 1.2483 0.183251C0.971824 0.306696 0.725198 0.488262 0.525204 0.715588C0.32521 0.942915 0.176545 1.21066 0.0893294 1.50061C0.00211367 1.79055 -0.021605 2.09589 0.0197881 2.39582C0.394048 5.33896 1.73818 8.07352 3.83986 10.1676C5.94154 12.2616 8.68098 13.5958 11.6255 13.9593H11.8924C12.4105 13.9601 12.9106 13.77 13.2975 13.4254C13.5197 13.2266 13.6972 12.983 13.8184 12.7105C13.9395 12.438 14.0014 12.1429 14 11.8447V9.73718C13.9914 9.2492 13.8137 8.77933 13.4972 8.40777C13.1807 8.03622 12.7451 7.78601 12.2647 7.69986ZM12.616 11.915C12.6159 12.0147 12.5945 12.1133 12.5533 12.2042C12.5121 12.295 12.4521 12.3761 12.3772 12.4419C12.2989 12.51 12.2071 12.5609 12.1079 12.5912C12.0086 12.6214 11.9041 12.6304 11.8011 12.6175C9.17007 12.2802 6.72623 11.0765 4.85505 9.19644C2.98387 7.31635 1.79184 4.86683 1.46698 2.23424C1.4558 2.13134 1.4656 2.02723 1.49579 1.92822C1.52598 1.82921 1.57592 1.73734 1.64261 1.65817C1.70845 1.58324 1.78948 1.52318 1.88033 1.48199C1.97118 1.44081 2.06976 1.41944 2.16951 1.41932H4.27707C4.44044 1.41568 4.59997 1.46911 4.72819 1.57041C4.85642 1.67171 4.94532 1.81454 4.97959 1.97431C5.00769 2.16633 5.04282 2.35601 5.08497 2.54335C5.16613 2.91368 5.27413 3.27761 5.40813 3.63226L4.4246 4.0889C4.34051 4.12748 4.26486 4.1823 4.20201 4.2502C4.13916 4.3181 4.09034 4.39774 4.05836 4.48456C4.02637 4.57138 4.01185 4.66366 4.01563 4.7561C4.0194 4.84855 4.0414 4.93934 4.08037 5.02325C5.09144 7.18896 6.83232 8.92984 8.99802 9.94091C9.16906 10.0112 9.3609 10.0112 9.53194 9.94091C9.61955 9.90957 9.70006 9.86114 9.76881 9.79843C9.83755 9.73572 9.89315 9.65998 9.93237 9.5756L10.3679 8.59207C10.7311 8.72195 11.1018 8.82986 11.4779 8.91523C11.6653 8.95738 11.8549 8.99251 12.047 9.02061C12.2067 9.05488 12.3496 9.14378 12.4509 9.27201C12.5522 9.40023 12.6056 9.55976 12.602 9.72313L12.616 11.915Z" fill="white"/>
</svg>
