<svg width="106" height="73" viewBox="0 0 106 73" fill="none" xmlns="http://www.w3.org/2000/svg">
<path d="M0.786885 62.9443L13.8295 42.9967C9.9082 41.4623 6.66885 38.9049 4.11148 35.3246C1.5541 31.7443 0.27541 27.6525 0.27541 23.0492C0.27541 16.9115 2.40656 11.7115 6.66885 7.44918C11.1016 3.01638 16.3869 0.799989 22.5246 0.799989C28.6623 0.799989 33.8623 3.01638 38.1246 7.44918C42.3869 11.7115 44.518 16.9115 44.518 23.0492C44.518 26.118 44.0066 28.9311 42.9836 31.4885C41.9607 33.8754 40.341 36.6885 38.1246 39.9279L15.8754 72.918L0.786885 62.9443ZM61.7244 62.9443L74.767 42.9967C70.8457 41.4623 67.6064 38.9049 65.049 35.3246C62.4916 31.7443 61.2129 27.6525 61.2129 23.0492C61.2129 16.9115 63.3441 11.7115 67.6064 7.44918C72.0391 3.01638 77.3244 0.799989 83.4621 0.799989C89.5998 0.799989 94.7998 3.01638 99.0621 7.44918C103.324 11.7115 105.456 16.9115 105.456 23.0492C105.456 26.118 104.944 28.9311 103.921 31.4885C102.898 33.8754 101.278 36.6885 99.0621 39.9279L76.8129 72.918L61.7244 62.9443Z" fill="#A6C3C9"/>
</svg>
