<svg width="39" height="28" viewBox="0 0 39 28" fill="none" xmlns="http://www.w3.org/2000/svg">
<path d="M17.024 4.472L12.128 11.96C13.6 12.472 14.816 13.4 15.776 14.744C16.736 16.024 17.216 17.592 17.216 19.448C17.216 21.752 16.416 23.736 14.816 25.4C13.216 27 11.264 27.8 8.96 27.8C6.656 27.8 4.672 27 3.008 25.4C1.408 23.736 0.608 21.752 0.608 19.448C0.608 18.232 0.8 17.144 1.184 16.184C1.632 15.224 2.24 14.2 3.008 13.112L11.36 0.727995L17.024 4.472ZM38.048 4.472L33.152 11.96C34.624 12.472 35.84 13.4 36.8 14.744C37.76 16.024 38.24 17.592 38.24 19.448C38.24 21.752 37.44 23.736 35.84 25.4C34.24 27 32.288 27.8 29.984 27.8C27.68 27.8 25.696 27 24.032 25.4C22.432 23.736 21.632 21.752 21.632 19.448C21.632 18.232 21.824 17.144 22.208 16.184C22.656 15.224 23.264 14.2 24.032 13.112L32.384 0.727995L38.048 4.472Z" fill="white"/>
</svg>
